<svg width="843" height="511" viewBox="0 0 843 511" fill="none" xmlns="http://www.w3.org/2000/svg">
<path d="M398.326 126.028L398.3 126.202L398.229 126.705L390.902 179.283L346.038 195.744L345.335 195.408L320.217 183.479L307.229 133.645L306.339 130.224L306.61 130.12L362.176 109.244L398.293 126.008L398.326 126.028Z" fill="#00BFA6"/>
<path d="M345.335 195.408L320.217 183.479L306.339 130.224L306.61 130.12L342.811 145.393L345.335 195.408Z" fill="#00BFA6"/>
<path opacity="0.2" d="M345.965 194.8L326.859 158.186L329.313 147.806L317.756 134.197L316.772 135.033L327.906 148.144L319.589 183.33L320.846 183.628L326.405 160.107L344.82 195.397L345.965 194.8Z" fill="black"/>
<path d="M398.326 126.673L398.229 126.705L342.811 146.039L307.229 133.645L306.339 130.224L306.61 130.12L362.176 109.244L398.293 126.008L398.3 126.202L398.326 126.673Z" fill="#55555B"/>
<path d="M343.779 147.007L332.482 138.293L335.064 128.61L367.34 116.99L389.288 118.281L398.003 125.705L398.648 127.641L343.779 147.007Z" fill="#00BFA6"/>
<path d="M306.984 130.224L332.482 129.255L346.295 124.567L367.831 116.99L371.859 111.181L361.809 109.382L306.984 130.224Z" fill="#00BFA6"/>
<path d="M357.785 119.836L344.49 124.502L344.917 125.72L358.212 121.054L357.785 119.836Z" fill="#CCCCCC"/>
<path d="M182.668 44.3442L176.435 75.5072L205.521 97.3222L219.026 56.8092L182.668 44.3442Z" fill="#9F616A"/>
<path d="M206.041 72.9105C221.531 72.9105 234.088 60.3533 234.088 44.8632C234.088 29.3731 221.531 16.8159 206.041 16.8159C190.551 16.8159 177.994 29.3731 177.994 44.8632C177.994 60.3533 190.551 72.9105 206.041 72.9105Z" fill="#9F616A"/>
<path d="M145.272 257.373C145.4 266.422 184.811 367.131 179.339 380.244C170.713 389.061 152.159 435.991 144.232 448.511C143.194 448.51 138 464.092 138 464.092C138 464.092 150.465 483.829 163.97 475.519C180.95 435.582 223.475 413.307 224.227 361.256C226.279 377.699 232.339 483.244 232.339 483.244C232.339 483.244 231.176 483.738 257.339 486.244C261.4 424.987 277.999 320.769 240.839 255.295C229.413 250.102 145.272 257.373 145.272 257.373Z" fill="#D7C586"/>
<path d="M232.337 481.19C231.122 483.525 222.413 505.083 230.339 507.244C239.479 509.737 248.339 506.244 248.339 506.244C248.339 506.244 264.339 511.244 274.13 504.89C278.7 500.32 277.662 496.165 275.481 493.153C274.373 491.669 272.954 490.445 271.324 489.566C269.693 488.688 267.891 488.175 266.042 488.066C261.073 487.711 259.495 486.79 258.926 484.514C258.095 481.19 232.337 481.19 232.337 481.19Z" fill="#6F6E82"/>
<path d="M146.864 462.365C146.864 462.365 124.537 469.415 129.238 477.641C132.29 482.739 136.747 486.849 142.076 489.479C142.076 489.479 146.732 508.676 159.658 508.676C166.121 508.676 168.324 505.003 168.912 501.331C169.177 499.498 169.04 497.63 168.508 495.856C167.977 494.081 167.065 492.445 165.835 491.06C162.572 487.296 162.107 485.529 163.315 483.516C165.078 480.578 146.864 462.365 146.864 462.365Z" fill="#6F6E82"/>
<path d="M246.039 260.414C246.039 260.414 241.879 268.724 225.259 265.604C208.639 262.494 143.199 265.604 143.199 265.604C143.199 265.604 146.829 191.334 138.519 146.664C130.209 101.994 162.929 76.5441 162.929 76.5441L173.319 66.154C183.709 65.124 205.649 97.364 205.649 97.364C212.869 98.574 219.609 129.264 225.359 158.304C225.699 159.964 226.019 161.604 226.339 163.244C228.989 176.784 232.679 191.854 234.889 205.384C235.049 206.344 235.199 207.294 235.339 208.244C237.966 225.814 241.538 243.229 246.039 260.414Z" fill="#E6E6E6"/>
<path d="M173.229 27.3993C173.229 27.3993 167.985 15.8628 181.619 10.6189C181.619 10.6189 193.156 -8.25913 216.229 4.32622C216.229 4.32622 231.96 10.6189 231.96 27.3993C231.96 44.1797 237.204 47.326 237.204 47.326C237.204 47.326 229.395 39.3147 227.298 33.022C225.2 26.7294 208.887 25.3018 202.595 31.5944C196.302 37.8871 180.57 36.8383 180.57 36.8383L181.619 59.9114C181.619 59.9114 176.375 46.2773 174.278 46.2773C172.18 46.2773 170.083 27.3993 173.229 27.3993Z" fill="#94949A"/>
<path opacity="0.2" d="M234.889 205.384C210.109 191.914 169.969 162.374 157.019 146.394C139.949 125.344 158.569 109.344 158.569 109.344C179.679 96.0243 204.919 141.724 204.919 141.724L225.359 158.304C225.699 159.964 226.019 161.604 226.339 163.244C228.989 176.784 232.679 191.854 234.889 205.384Z" fill="black"/>
<path d="M308.862 189.861C308.862 189.861 345.702 204.817 351.766 188.005C357.829 171.193 322.68 171.481 322.68 171.481L308.881 173.437L308.862 189.861Z" fill="#9F616A"/>
<path d="M153.846 102.503C153.846 102.503 135.235 118.512 152.293 139.555C169.351 160.598 247.744 205.559 247.744 205.559L298.808 191.755L313.259 194.399L315.983 167.269L294.694 169.347L240.653 157.84L206.193 129.879C206.193 129.879 174.951 89.1898 153.846 102.503Z" fill="#E6E6E6"/>
<path opacity="0.2" d="M221.646 295.362L224.902 371.443L216.646 295.362H221.646Z" fill="black"/>
<path d="M573.181 240.938L543.623 247.787C541.337 248.317 538.934 247.934 536.925 246.721C534.916 245.507 533.459 243.558 532.865 241.287C532.52 239.971 532.477 238.593 532.741 237.257C533.004 235.922 533.567 234.664 534.386 233.576C535.205 232.489 536.259 231.602 537.47 230.98C538.681 230.359 540.017 230.019 541.378 229.988L569.929 229.324L573.181 240.938Z" fill="#FFB9B9"/>
<path d="M570.043 245.277L563.479 225.583L602.834 212.14L592.389 120.154C611.195 123.574 620.145 138.362 619.307 157.458L624.398 220.227L570.043 245.277Z" fill="#C6DDBE"/>
<path d="M597.235 99.8737H661.533V67.8983C661.556 59.2625 658.172 50.9662 652.116 44.8098C649.158 41.7767 645.622 39.3675 641.718 37.7245C637.813 36.0815 633.618 35.2381 629.382 35.2442C620.921 35.2598 612.807 38.6045 606.793 44.5553C600.78 50.506 597.349 58.5845 597.245 67.0442C597.24 67.337 597.235 67.6152 597.235 67.8983L597.235 99.8737Z" fill="#AAAAAD"/>
<path d="M688.418 475.63L667.864 473.272L643.267 307.158L592.389 473.946L570.15 474.62L595.421 269.421L591.715 222.585L654.723 202.706C699.35 233.859 698.427 343.893 688.418 475.63Z" fill="#8885BB"/>
<path d="M623.725 93.5356C637.123 93.5356 647.985 82.674 647.985 69.2756C647.985 55.8772 637.123 45.0156 623.725 45.0156C610.326 45.0156 599.465 55.8772 599.465 69.2756C599.465 82.674 610.326 93.5356 623.725 93.5356Z" fill="#FFB9B9"/>
<path d="M647.985 113.078L606.877 123.86C613.803 110.541 616.02 98.1076 612.269 86.7963L641.246 82.0791C639.383 92.8951 641.8 104.011 647.985 113.078Z" fill="#FFB9B9"/>
<path d="M661.799 211.803C638.743 226.466 611.886 243.31 592.052 226.965L582.618 181.141C575.119 174.462 578.444 153.853 588.581 124.477C589.225 122.612 590.285 120.918 591.681 119.524C593.076 118.13 594.771 117.072 596.636 116.43L612.269 111.057C619.197 116.883 630.553 113.408 643.941 105.666L659.441 109.709L666.18 160.25C656.452 174.825 658.151 194.232 661.799 211.803Z" fill="#C6DDBE"/>
<path d="M642.592 231.504L613.034 238.353C610.747 238.883 608.344 238.5 606.335 237.287C604.326 236.073 602.87 234.124 602.275 231.853C601.93 230.536 601.888 229.159 602.151 227.823C602.415 226.488 602.977 225.229 603.796 224.142C604.615 223.055 605.67 222.168 606.881 221.546C608.092 220.925 609.428 220.585 610.789 220.554L639.34 219.89L642.592 231.504Z" fill="#FFB9B9"/>
<path d="M684.846 507.389C681.394 508.964 678.502 499.2 675.59 502.062C667.446 510.066 647.907 508.271 647.907 508.271C647.251 508.06 646.644 507.719 646.124 507.267C645.604 506.814 645.182 506.261 644.882 505.641C644.581 505.021 644.41 504.346 644.379 503.658C644.347 502.969 644.456 502.282 644.698 501.637C644.987 500.864 645.46 500.174 646.075 499.625C646.691 499.076 647.43 498.685 648.23 498.485L656.892 496.319L670.492 472.401L685.315 470.525L685.689 471.138C688.554 475.756 690.402 480.932 691.108 486.321C691.814 491.71 691.363 497.187 689.784 502.388C688.552 506.337 686.874 506.463 684.846 507.389Z" fill="#6F6E82"/>
<path d="M587.132 507.389C583.68 508.964 580.788 499.2 577.876 502.062C569.732 510.066 550.193 508.271 550.193 508.271C549.537 508.06 548.931 507.719 548.411 507.267C547.89 506.814 547.468 506.261 547.168 505.641C546.868 505.021 546.697 504.346 546.665 503.658C546.633 502.969 546.742 502.282 546.984 501.637C547.273 500.864 547.746 500.174 548.361 499.625C548.977 499.076 549.716 498.685 550.516 498.485L559.178 496.319L572.779 472.401L587.601 470.525L587.975 471.138C590.841 475.756 592.688 480.932 593.394 486.321C594.1 491.71 593.649 497.187 592.071 502.388C590.838 506.337 589.16 506.463 587.132 507.389Z" fill="#6F6E82"/>
<path d="M652.165 49.0405L646.055 68.4801L593.229 67.5413C593.409 60.7398 595.71 54.1646 599.809 48.7342C603.908 43.3037 609.601 39.2892 616.092 37.2515C622.584 35.2137 629.55 35.2545 636.017 37.368C642.484 39.4816 648.129 43.5624 652.165 49.0405Z" fill="#AAAAAD"/>
<path d="M639.454 235.842L632.889 216.148L672.245 202.705L657.357 108.726C666.451 110.38 674.639 115.271 680.404 122.496C686.17 129.72 689.123 138.789 688.717 148.023L693.809 210.792L639.454 235.842Z" fill="#C6DDBE"/>
<path d="M545.455 182.748L504.522 191.551L496.159 151.278L511.564 130.591L525.428 127.95L540.833 143.575L545.455 182.748Z" fill="#CCCCCC"/>
<path d="M526.529 184.504H501.879L498.519 167.914L494.839 149.734L500.339 141.814L510.909 145.114L522.349 160.964L525.219 177.114L525.419 178.264L526.529 184.504Z" fill="#E6E6E6"/>
<path d="M567.902 174.825L539.513 178.126L544.575 142.035L556.018 131.691L565.921 134.112L572.524 149.297L567.902 174.825Z" fill="#CCCCCC"/>
<path d="M571.639 153.474L568.999 168.004L560.419 217.514L527.409 228.084L526.269 227.464L508.479 217.734L498.469 167.894L498.519 167.914L524.989 178.564L525.219 177.114L525.379 176.064L527.409 163.164L536.429 153.474L566.579 146.214L571.639 153.474Z" fill="#E6E6E6"/>
<path d="M550.737 151.938C554.626 151.938 557.779 148.785 557.779 144.896C557.779 141.006 554.626 137.854 550.737 137.854C546.847 137.854 543.694 141.006 543.694 144.896C543.694 148.785 546.847 151.938 550.737 151.938Z" fill="#E6E6E6"/>
<path d="M533.423 148.53L517.357 151.391L517.435 151.824L533.5 148.964L533.423 148.53Z" fill="white"/>
<path d="M526.269 227.464L508.479 217.734L498.469 167.894L498.519 167.914L494.839 149.734L500.339 141.814L510.909 145.114L522.349 160.964L525.219 177.114L525.379 176.064L525.419 178.264L525.529 184.504L526.269 227.464Z" fill="#F2F2F2"/>
<path d="M508.696 217.796L508.27 217.682L517.045 184.776L506.997 171.529L507.348 171.263L517.526 184.681L508.696 217.796Z" fill="#CCCCCC"/>
<path d="M513.65 199.01L513.253 199.201L527.211 228.178L527.607 227.987L513.65 199.01Z" fill="#CCCCCC"/>
<path opacity="0.2" d="M569.907 164.988L568.254 174.119L568.171 174.128L560.772 216.813L527.761 227.376L527.563 227.471L527.431 227.196L508.835 217.033L508.622 216.976L508.736 216.544L498.822 167.187L498.873 167.207L497.774 161.789L498.595 160.607L501.133 156.954L511.696 160.255L523.14 176.1L523.307 177.042L524.509 183.802L524.991 186.518L526.01 192.255L526.978 186.091L527.326 183.873L528.201 178.301L537.224 168.617L541.236 167.651L544.029 166.978L547.871 166.054C546.68 165.329 545.73 164.268 545.142 163.003C544.555 161.738 544.356 160.327 544.571 158.949C544.786 157.572 545.405 156.289 546.35 155.263C547.295 154.238 548.524 153.516 549.879 153.189C551.235 152.862 552.657 152.946 553.966 153.428C555.274 153.911 556.41 154.771 557.229 155.9C558.048 157.028 558.513 158.375 558.566 159.768C558.619 161.162 558.257 162.54 557.526 163.727L567.374 161.355L569.801 164.839L569.907 164.988Z" fill="black"/>
<path d="M527.321 201.848H502.673L495.631 167.077L501.133 159.154L511.696 162.455L523.14 178.3L527.321 201.848Z" fill="#E6E6E6"/>
<path d="M561.212 234.859L528.201 245.422L509.275 235.079L499.262 185.233L525.781 195.906L528.201 180.501L537.224 170.818L567.374 163.556L572.436 170.818L569.795 185.343L561.212 234.859Z" fill="#E6E6E6"/>
<path d="M551.529 169.277C555.418 169.277 558.571 166.124 558.571 162.235C558.571 158.346 555.418 155.193 551.529 155.193C547.64 155.193 544.487 158.346 544.487 162.235C544.487 166.124 547.64 169.277 551.529 169.277Z" fill="#E6E6E6"/>
<path d="M527.079 244.464L509.289 234.734L499.279 184.894L499.329 184.914L495.649 166.734L501.149 158.814L511.719 162.114L523.159 177.964L526.029 194.114L526.189 193.064L526.229 195.264L526.339 201.504L527.079 244.464Z" fill="#F2F2F2"/>
<path d="M509.488 235.135L509.063 235.022L517.838 202.115L507.789 188.868L508.14 188.602L518.319 202.021L509.488 235.135Z" fill="#CCCCCC"/>
<path d="M514.442 216.35L514.046 216.541L528.003 245.518L528.4 245.327L514.442 216.35Z" fill="#CCCCCC"/>
<path d="M402.616 452.798L361.683 461.601L353.32 421.328L368.725 400.641L382.589 398L397.994 413.625L402.616 452.798Z" fill="#C0BCBC"/>
<path d="M383.69 454.554H359.04L355.68 437.964L352 419.784L357.5 411.864L368.07 415.164L379.51 431.014L382.38 447.164L382.58 448.314L383.69 454.554Z" fill="#CFE9A4"/>
<path d="M425.063 444.875L396.674 448.177L401.736 412.085L413.179 401.742L423.082 404.162L429.685 419.347L425.063 444.875Z" fill="#C0BCBC"/>
<path d="M428.8 423.524L426.16 438.054L417.58 487.564L384.57 498.134L383.43 497.514L365.64 487.784L355.63 437.944L355.68 437.964L382.15 448.614L382.38 447.164L382.54 446.114L384.57 433.214L393.59 423.524L423.74 416.264L428.8 423.524Z" fill="#CFE9A4"/>
<path d="M407.898 421.988C411.787 421.988 414.94 418.835 414.94 414.946C414.94 411.057 411.787 407.904 407.898 407.904C404.008 407.904 400.855 411.057 400.855 414.946C400.855 418.835 404.008 421.988 407.898 421.988Z" fill="#CFE9A4"/>
<path d="M390.584 418.581L374.519 421.441L374.596 421.875L390.661 419.014L390.584 418.581Z" fill="#CCFAB6"/>
<path d="M383.43 497.514L365.64 487.784L355.63 437.944L355.68 437.964L352 419.784L357.5 411.864L368.07 415.164L379.51 431.014L382.38 447.164L382.54 446.114L382.58 448.314L382.69 454.554L383.43 497.514Z" fill="#E4F9C9"/>
<path d="M365.857 496.846L365.431 496.733L374.206 463.826L364.158 450.579L364.509 450.313L374.687 463.731L365.857 496.846Z" fill="#C0BCBC"/>
<path d="M370.811 478.06L370.415 478.251L384.372 507.228L384.768 507.037L370.811 478.06Z" fill="#C0BCBC"/>
<path d="M329.5 499.604H302.5L298.5 447.604H333.5L329.5 499.604Z" fill="#D16969"/>
<path d="M334 468.604H298V476.604H334V468.604Z" fill="#EE9C9C"/>
<path d="M343.251 451.337L337.495 449.642L337.421 447.535L311.841 440L310.636 441.73L304.881 440.035L301.267 445.225L343.474 457.658L343.251 451.337Z" fill="#558ABC"/>
<path d="M91.987 440.783L91.961 440.957L91.89 441.461L84.563 494.039L39.699 510.5L38.996 510.164L13.878 498.235L0.889999 448.4L0 444.979L0.271 444.876L55.837 424L91.954 440.764L91.987 440.783Z" fill="#00BFA6"/>
<path d="M38.996 510.164L13.878 498.235L0 444.979L0.271 444.876L36.472 460.149L38.996 510.164Z" fill="#00BFA6"/>
<path opacity="0.2" d="M39.6261 509.555L20.5201 472.941L22.9741 462.562L11.4171 448.952L10.4331 449.788L21.5671 462.9L13.2501 498.086L14.5071 498.383L20.0661 474.863L38.4811 510.153L39.6261 509.555Z" fill="black"/>
<path d="M91.987 441.429L91.89 441.461L36.472 460.794L0.889999 448.4L0 444.979L0.271 444.876L55.837 424L91.954 440.764L91.961 440.957L91.987 441.429Z" fill="#545459"/>
<path d="M37.4401 461.763L26.1431 453.048L28.7251 443.365L61.0011 431.746L82.9491 433.037L91.6641 440.46L92.3091 442.397L37.4401 461.763Z" fill="#00BFA6"/>
<path d="M0.64502 444.979L26.143 444.011L39.956 439.322L61.492 431.746L65.52 425.936L55.47 424.138L0.64502 444.979Z" fill="#00BFA6"/>
<path d="M51.4459 434.592L38.1509 439.257L38.5783 440.475L51.8733 435.81L51.4459 434.592Z" fill="#CCCCCC"/>
<path d="M742 500H715L711 448H746L742 500Z" fill="#00BFA6"/>
<path d="M746.5 469H710.5V477H746.5V469Z" fill="#E6E6E6"/>
<path d="M748 445H742L741.333 443H714.667L714 445H708L706 451H750L748 445Z" fill="#545459"/>
<path d="M710.338 507.173H104.243V509.173H710.338V507.173Z" fill="#99999A"/>
<path d="M750.322 440.783L750.348 440.957L750.419 441.461L757.746 494.039L802.61 510.5L803.313 510.164L828.431 498.235L841.419 448.4L842.309 444.979L842.038 444.876L786.472 424L750.355 440.764L750.322 440.783Z" fill="#82BF00"/>
<path d="M803.313 510.164L828.431 498.235L842.309 444.979L842.038 444.876L805.837 460.149L803.313 510.164Z" fill="#82BF00"/>
<path opacity="0.2" d="M802.683 509.555L821.789 472.941L819.335 462.562L830.892 448.952L831.876 449.788L820.742 462.9L829.059 498.086L827.802 498.383L822.243 474.863L803.828 510.153L802.683 509.555Z" fill="black"/>
<path d="M750.322 441.429L750.419 441.461L805.837 460.794L841.419 448.4L842.309 444.979L842.038 444.876L786.472 424L750.355 440.764L750.348 440.957L750.322 441.429Z" fill="#545459"/>
<path d="M804.869 461.763L816.166 453.048L813.584 443.365L781.308 431.746L759.36 433.037L750.645 440.46L750 442.397L804.869 461.763Z" fill="#82BF00"/>
<path d="M841.664 444.979L816.166 444.011L802.353 439.322L780.817 431.746L776.789 425.936L786.839 424.138L841.664 444.979Z" fill="#82BF00"/>
<path d="M790.863 434.592L804.158 439.257L803.731 440.475L790.436 435.81L790.863 434.592Z" fill="#CCCCCC"/>
</svg>
